<svg viewBox="0 0 200 200" xmlns="http://www.w3.org/2000/svg">
  <path fill="transparent" d="M 100 0 C 44.771 0 0 44.771 0 100 C 0 155.228 44.771 200 100 200 C 155.228 200 200 155.228 200 100 C 200 44.771 155.228 0 100 0 z M 75.768 35.247 C 84.747 35.247 92.994 38.527 99.378 43.942 C 105.76 38.527 114.012 35.247 122.988 35.247 C 143.116 35.247 159.584 51.717 159.584 71.847 L 159.584 91.545 L 159.584 101.435 L 159.584 104.534 C 159.584 111.679 153.739 117.522 146.596 117.522 L 146.594 117.522 C 139.451 117.522 133.61 111.677 133.61 104.534 L 133.61 101.435 L 133.61 91.545 L 133.61 71.847 C 133.61 66.055 128.781 61.225 122.988 61.225 C 117.196 61.225 112.364 66.055 112.364 71.847 L 112.364 111.578 L 112.364 114.681 C 112.364 121.823 106.524 127.669 99.378 127.669 C 92.235 127.669 86.39 121.823 86.39 114.681 L 86.39 111.578 L 86.39 101.691 L 86.39 71.847 C 86.39 66.055 81.561 61.225 75.768 61.225 C 69.978 61.225 65.149 66.055 65.149 71.847 L 65.149 91.545 L 65.149 101.435 L 65.149 104.534 C 65.149 111.679 59.304 117.522 52.161 117.522 L 52.159 117.522 C 45.015 117.522 39.17 111.677 39.17 104.534 L 39.17 101.435 L 39.17 91.545 L 39.17 71.847 C 39.17 51.719 55.641 35.247 75.768 35.247 z M 66.785 135.525 C 70.108 135.525 73.431 136.791 75.966 139.326 L 76.101 139.463 C 82.003 145.297 90.104 148.911 99.007 148.911 L 99.234 148.911 L 99.463 148.911 C 108.366 148.911 116.466 145.297 122.367 139.463 L 122.501 139.326 C 127.573 134.256 135.796 134.256 140.868 139.326 C 145.939 144.398 145.939 152.621 140.868 157.692 C 130.255 168.31 115.604 174.887 99.463 174.887 L 99.234 174.887 L 99.007 174.887 C 82.866 174.887 68.215 168.31 57.603 157.692 C 52.531 152.621 52.531 144.398 57.603 139.326 C 60.138 136.791 63.461 135.525 66.785 135.525 z"/>
</svg>
