<?xml version="1.0" encoding="UTF-8" standalone="no"?>
<svg
   version="1.1"
   width="799.54333"
   height="132.75"
   viewBox="0 0 799.54333 132.75"
   xml:space="preserve"
   id="svg7"
   sodipodi:docname="logo.svg"
   inkscape:version="1.4.3 (0d15f75, 2025-12-25)"
   xmlns:inkscape="http://www.inkscape.org/namespaces/inkscape"
   xmlns:sodipodi="http://sodipodi.sourceforge.net/DTD/sodipodi-0.dtd"
   xmlns="http://www.w3.org/2000/svg"
   xmlns:svg="http://www.w3.org/2000/svg"><sodipodi:namedview
   id="namedview7"
   pagecolor="#ffffff"
   bordercolor="#000000"
   borderopacity="0.25"
   inkscape:showpageshadow="2"
   inkscape:pageopacity="0.0"
   inkscape:pagecheckerboard="true"
   inkscape:deskcolor="#d1d1d1"
   showguides="true"
   inkscape:zoom="0.98419618"
   inkscape:cx="375.43328"
   inkscape:cy="33.5299"
   inkscape:window-width="1728"
   inkscape:window-height="961"
   inkscape:window-x="0"
   inkscape:window-y="33"
   inkscape:window-maximized="1"
   inkscape:current-layer="svg7" />
<desc
   id="desc1">Created with Fabric.js 5.3.0</desc>
<defs
   id="defs1">
</defs>

<g
   transform="matrix(0.67039083,0,0,0.67039083,66.375706,66.374985)"
   id="logo-logo">

<path
   id="path1"
   style="opacity:1;fill:#ffffff;fill-rule:nonzero;stroke:none;stroke-width:1;stroke-linecap:butt;stroke-linejoin:miter;stroke-miterlimit:4;stroke-dasharray:none;stroke-dashoffset:0"
   d="M 99.998938,5.1975207e-4 C 44.770463,5.1975207e-4 -5.6665557e-4,44.771553 -5.6665557e-4,100.00002 c 0,55.22847 44.77102965557,99.99951 99.99950465557,99.99951 55.228472,0 100.002442,-44.77104 100.002442,-99.99951 0,-55.228467 -44.77397,-99.99950024793 -100.002442,-99.99950024793 z M 75.767066,35.246343 c 8.978605,0 17.226902,3.280812 23.610994,8.695225 6.38155,-5.414413 14.63199,-8.695225 23.60805,-8.695225 20.12769,0 36.5994,16.469161 36.5994,36.599395 v 19.70035 9.889902 3.0985 c 0,7.14557 -5.84538,12.98546 -12.9884,12.98546 h -0.003 c -7.14302,0 -12.98546,-5.84243 -12.98546,-12.98546 v -3.0985 -9.889902 -19.70035 c 0,-5.791971 -4.82998,-10.622593 -10.62259,-10.622593 -5.79261,0 -10.62259,4.830622 -10.62259,10.622593 v 39.733202 3.10145 c 0,7.14239 -5.83989,12.9884 -12.98546,12.9884 -7.143027,0 -12.988401,-5.84601 -12.988401,-12.9884 v -3.10145 -9.88695 -29.846252 c 0,-5.791971 -4.829986,-10.622593 -10.622593,-10.622593 -5.79006,0 -10.619651,4.830622 -10.619651,10.622593 v 19.70035 9.889902 3.0985 c 0,7.14557 -5.842431,12.98546 -12.985458,12.98546 h -0.0029 c -7.143028,0 -12.988401,-5.84243 -12.988401,-12.98546 v -3.0985 -9.889902 -19.70035 c 0,-20.127687 16.468765,-36.599395 36.596452,-36.599395 z M 66.783471,135.52539 c 3.323284,0 6.648388,1.26647 9.183688,3.80177 l 0.132415,0.13536 c 5.902118,5.83463 14.00425,9.44851 22.907725,9.44851 h 0.226576 0.229519 c 8.903476,0 17.003306,-3.61388 22.904786,-9.44851 l 0.13535,-0.13536 c 5.07124,-5.0706 13.2932,-5.0706 18.36444,0 5.07123,5.07124 5.07123,13.2932 0,18.36443 -10.61235,10.61745 -25.26384,17.19625 -41.404576,17.19625 h -0.229519 -0.226576 c -16.141369,0 -30.792221,-6.5788 -41.404573,-17.19625 -5.071237,-5.07123 -5.071237,-13.29319 0,-18.36443 2.535619,-2.5353 5.857461,-3.80177 9.180745,-3.80177 z"
   transform="matrix(0.990099,0,0,0.990099,-99.009901,-99.009901)" /></g>
<g
   transform="matrix(1.9211538,0,0,1.9211538,483.74408,66.970705)"
   id="text-logo">

<path
   style="opacity:1;fill:#ffffff;fill-rule:nonzero;stroke:none;stroke-width:0;stroke-linecap:butt;stroke-linejoin:miter;stroke-miterlimit:4;stroke-dasharray:none;stroke-dashoffset:0"
   paint-order="stroke"
   transform="translate(-167.2,22.275)"
   d="m 11.78,-3.78 v -26.49 c 0,-3.2 2.62,-5.83 5.82,-5.83 3.14,0 5.76,2.63 5.76,5.83 v 26.49 c 0,2.5 1.98,4.48 4.48,4.48 2.5,0 4.48,-1.98 4.48,-4.48 v -26.49 c 0,-3.2 2.62,-5.83 5.82,-5.83 3.14,0 5.76,2.63 5.76,5.83 v 26.49 c 0,2.5 1.99,4.48 4.48,4.48 2.5,0 4.48,-1.98 4.48,-4.48 v -26.49 c 0,-8.19 -6.59,-14.79 -14.72,-14.79 -4.03,0 -7.68,1.6 -10.3,4.16 -2.62,-2.56 -6.27,-4.16 -10.24,-4.16 -8.19,0 -14.78,6.6 -14.78,14.79 v 26.49 c 0,2.5 1.98,4.48 4.48,4.48 2.49,0 4.48,-1.98 4.48,-4.48 z m 68.48,-0.25 v -36.74 c 0,-2.49 -1.99,-4.48 -4.48,-4.48 -2.5,0 -4.48,1.99 -4.48,4.48 v 36.74 c 0,2.49 1.98,4.48 4.48,4.48 2.49,0 4.48,-1.99 4.48,-4.48 z m 19.45,-3.46 c 3.97,4.93 9.67,7.75 15.81,7.75 9.28,0 16.7,-5.64 16.7,-13.76 0,-8.77 -6.65,-11.01 -15.48,-12.93 -5.64,-1.35 -8,-2.18 -8,-5.19 0,-2.43 2.17,-4.48 6.52,-4.48 3.01,0 5.19,1.09 6.79,2.63 0.83,0.77 1.92,1.21 3.13,1.21 2.44,0 4.48,-1.98 4.48,-4.48 0,-1.28 -0.51,-2.36 -1.4,-3.2 -3.01,-2.88 -7.24,-5.12 -13,-5.12 -9.28,0 -15.48,5.89 -15.48,13.44 0,9.09 6.91,11.97 14.91,13.89 6.21,1.35 8.57,1.79 8.57,4.23 0,2.81 -3.39,4.8 -7.74,4.8 -3.39,0 -6.46,-1.48 -8.83,-4.42 -0.83,-1.02 -2.11,-1.66 -3.52,-1.66 -2.43,0 -4.48,1.98 -4.48,4.48 0,1.02 0.38,2.04 1.02,2.81 z m 51.97,0 c 3.97,4.93 9.66,7.75 15.81,7.75 9.28,0 16.7,-5.64 16.7,-13.76 0,-8.77 -6.65,-11.01 -15.49,-12.93 -5.63,-1.35 -8,-2.18 -8,-5.19 0,-2.43 2.18,-4.48 6.53,-4.48 3.01,0 5.19,1.09 6.79,2.63 0.83,0.77 1.92,1.21 3.13,1.21 2.43,0 4.48,-1.98 4.48,-4.48 0,-1.28 -0.51,-2.36 -1.41,-3.2 -3,-2.88 -7.23,-5.12 -12.99,-5.12 -9.28,0 -15.49,5.89 -15.49,13.44 0,9.09 6.92,11.97 14.92,13.89 6.2,1.35 8.57,1.79 8.57,4.23 0,2.81 -3.39,4.8 -7.74,4.8 -3.39,0 -6.47,-1.48 -8.83,-4.42 -0.84,-1.02 -2.12,-1.66 -3.52,-1.66 -2.44,0 -4.48,1.98 -4.48,4.48 0,1.02 0.38,2.04 1.02,2.81 z m 59.9,3.46 v -36.74 c 0,-2.49 -1.98,-4.48 -4.48,-4.48 -2.49,0 -4.48,1.99 -4.48,4.48 v 36.74 c 0,2.49 1.99,4.48 4.48,4.48 2.5,0 4.48,-1.99 4.48,-4.48 z m 41.09,-4.67 c -7.55,0 -13.69,-6.15 -13.69,-13.7 0,-7.55 6.14,-13.7 13.69,-13.7 7.55,0 13.7,6.15 13.7,13.7 0,7.55 -6.15,13.7 -13.7,13.7 z m 0,8.96 c 12.55,0 22.66,-10.12 22.66,-22.66 0,-12.54 -10.11,-22.66 -22.66,-22.66 -12.54,0 -22.65,10.12 -22.65,22.66 0,12.54 10.11,22.66 22.65,22.66 z m 50.05,-4.04 v -22.33 c 0,-5.51 4.48,-9.99 9.98,-9.99 5.44,0 9.92,4.48 9.92,9.99 v 22.33 c 0,2.5 1.99,4.48 4.48,4.48 2.5,0 4.48,-1.98 4.48,-4.48 v -22.33 c 0,-10.5 -8.44,-18.95 -18.88,-18.95 -10.49,0 -18.94,8.45 -18.94,18.95 v 22.33 c 0,2.5 1.98,4.48 4.48,4.48 2.5,0 4.48,-1.98 4.48,-4.48 z"
   stroke-linecap="round"
   id="path6" /></g>
</svg>
