<?xml version="1.0" encoding="UTF-8" standalone="no"?>
<svg
   version="1.1"
   width="1280"
   height="1024"
   viewBox="0 0 1280 1024"
   xml:space="preserve"
   id="svg7"
   sodipodi:docname="logo.svg"
   inkscape:version="1.4.3 (0d15f75, 2025-12-25)"
   xmlns:inkscape="http://www.inkscape.org/namespaces/inkscape"
   xmlns:sodipodi="http://sodipodi.sourceforge.net/DTD/sodipodi-0.dtd"
   xmlns="http://www.w3.org/2000/svg"
   xmlns:svg="http://www.w3.org/2000/svg"><sodipodi:namedview
   id="namedview7"
   pagecolor="#ffffff"
   bordercolor="#000000"
   borderopacity="0.25"
   inkscape:showpageshadow="2"
   inkscape:pageopacity="0.0"
   inkscape:pagecheckerboard="0"
   inkscape:deskcolor="#d1d1d1"
   showguides="true"
   inkscape:zoom="1.652655"
   inkscape:cx="563.03342"
   inkscape:cy="536.71214"
   inkscape:window-width="1728"
   inkscape:window-height="961"
   inkscape:window-x="0"
   inkscape:window-y="33"
   inkscape:window-maximized="1"
   inkscape:current-layer="svg7" />
<desc
   id="desc1">Created with Fabric.js 5.3.0</desc>
<defs
   id="defs1">
</defs>
<g
   transform="matrix(1 0 0 1 640 512)"
   id="background-logo">
<rect
   style="stroke: none; stroke-width: 0; stroke-dasharray: none; stroke-linecap: butt; stroke-dashoffset: 0; stroke-linejoin: miter; stroke-miterlimit: 4; fill: rgb(255,139,77); fill-rule: nonzero; opacity: 1;"
   paint-order="stroke"
   x="-640"
   y="-512"
   rx="0"
   ry="0"
   width="1280"
   height="1024"
   id="rect1" />
</g>
<g
   transform="matrix(0.9562520212531881 0 0 0.9562520212531881 297.12736767019317 511.7862644415918)"
   id="logo-logo">
<g
   style=""
   paint-order="stroke"
   id="g6">
		<g
   transform="matrix(0.9900990320472473 0 0 0.9900990320472475 0 0)"
   id="g3">
<g
   style=""
   paint-order="stroke"
   id="g2">
		<g
   transform="matrix(1 0 0 1 0 0)"
   id="g1">
<path
   style="stroke: none; stroke-width: 1; stroke-dasharray: none; stroke-linecap: butt; stroke-dashoffset: 0; stroke-linejoin: miter; stroke-miterlimit: 4; fill: rgb(255,255,255); fill-rule: nonzero; opacity: 1;"
   paint-order="stroke"
   transform=" translate(-100, -100)"
   d="M 200 100 C 200 155.22847498307934 155.22847498307934 200 100 200 C 44.771525016920656 200 0 155.22847498307934 0 100 C 0 44.771525016920656 44.771525016920656 0 100 0 C 155.22847498307934 0 200 44.77152501692063 200 99.99999999999997 Z"
   stroke-linecap="round"
   id="path1" />
</g>
</g>
</g>
		<g
   transform="matrix(0.6303863247780838 0 0 -0.6303863247780838 -0.7576710220019436 54.659496685307204)"
   id="g4">
<path
   style="stroke: none; stroke-width: 1; stroke-dasharray: none; stroke-linecap: butt; stroke-dashoffset: 0; stroke-linejoin: miter; stroke-miterlimit: 4; fill: rgb(255,139,77); fill-rule: evenodd; opacity: 1;"
   paint-order="stroke"
   transform=" translate(-389.77549999999997, -233.24849999999998)"
   d="M 426.32 258.188 L 426.109 257.977 C 416.84 248.813 404.11699999999996 243.13699999999997 390.133 243.13699999999997 C 390.012 243.13699999999997 389.895 243.13699999999997 389.77299999999997 243.13699999999997 C 389.65599999999995 243.13699999999997 389.53499999999997 243.13699999999997 389.41799999999995 243.13699999999997 C 375.43399999999997 243.13699999999997 362.71099999999996 248.81299999999996 353.441 257.977 L 353.22999999999996 258.188 C 345.26599999999996 266.152 332.352 266.152 324.38699999999994 258.188 C 316.42199999999997 250.22299999999998 316.42199999999997 237.309 324.38699999999994 229.344 C 341.05499999999995 212.668 364.0659999999999 202.33599999999998 389.41799999999995 202.33599999999998 C 389.53499999999997 202.33599999999998 389.65599999999995 202.33599999999998 389.77299999999997 202.33599999999998 C 389.895 202.33599999999998 390.01199999999994 202.33599999999998 390.133 202.33599999999998 C 415.484 202.33599999999998 438.496 212.66799999999998 455.164 229.344 C 463.12899999999996 237.309 463.12899999999996 250.22299999999998 455.164 258.188 C 447.199 266.152 434.28499999999997 266.152 426.32 258.188"
   stroke-linecap="round"
   id="path3" />
</g>
		<g
   transform="matrix(0.6303863247780838 0 0 -0.6303863247780838 -0.6158340989267685 -18.35909689322537)"
   id="g5">
<path
   style="stroke: none; stroke-width: 1; stroke-dasharray: none; stroke-linecap: butt; stroke-dashoffset: 0; stroke-linejoin: miter; stroke-miterlimit: 4; fill: rgb(255,139,77); fill-rule: evenodd; opacity: 1;"
   paint-order="stroke"
   transform=" translate(-390.0005000000001, -349.0799999999999)"
   d="M 410.398 301.77 L 410.398 364.176 C 410.398 373.27299999999997 417.98400000000004 380.859 427.08200000000005 380.859 C 436.18000000000006 380.859 443.7660000000001 373.27299999999997 443.7660000000001 364.176 L 443.7660000000001 333.234 L 443.7660000000001 317.703 L 443.7660000000001 312.83599999999996 C 443.7660000000001 301.61699999999996 452.9410000000001 292.43799999999993 464.1600000000001 292.43799999999993 L 464.1640000000001 292.43799999999993 C 475.3830000000001 292.43799999999993 484.5630000000001 301.61299999999994 484.5630000000001 312.83599999999996 L 484.5630000000001 317.703 L 484.5630000000001 333.234 L 484.5630000000001 364.176 C 484.5630000000001 395.793 458.6950000000001 421.65999999999997 427.0820000000001 421.65999999999997 C 412.9840000000001 421.65999999999997 400.0230000000001 416.508 390.0000000000001 408.00399999999996 C 379.9730000000001 416.508 367.0200000000001 421.65999999999997 352.9180000000001 421.65999999999997 C 321.3050000000001 421.65999999999997 295.4380000000001 395.789 295.4380000000001 364.176 L 295.4380000000001 333.234 L 295.4380000000001 317.703 L 295.4380000000001 312.83599999999996 C 295.4380000000001 301.61699999999996 304.6170000000001 292.43799999999993 315.8360000000001 292.43799999999993 L 315.84000000000015 292.43799999999993 C 327.05900000000014 292.43799999999993 336.23800000000017 301.61299999999994 336.23800000000017 312.83599999999996 L 336.23800000000017 317.703 L 336.23800000000017 333.234 L 336.23800000000017 364.176 C 336.23800000000017 373.27299999999997 343.8240000000002 380.859 352.9180000000002 380.859 C 362.0160000000002 380.859 369.6020000000002 373.27299999999997 369.6020000000002 364.176 L 369.6020000000002 317.301 L 369.6020000000002 301.77 L 369.6020000000002 296.89799999999997 C 369.6020000000002 285.67999999999995 378.7810000000002 276.49999999999994 390.0000000000002 276.49999999999994 L 390.0000000000002 276.49999999999994 C 401.22300000000024 276.49999999999994 410.39800000000025 285.67999999999995 410.39800000000025 296.89799999999997 L 410.39800000000025 301.77"
   stroke-linecap="round"
   id="path4" />
</g>
</g>
</g>
<g
   transform="matrix(1.9211538461538462 0 0 1.9211538461538462 758.2518881198289 507.6230472108226)"
   id="text-logo">
<g
   style=""
   paint-order="stroke"
   id="g7">
		<g
   transform="matrix(1 0 0 1 0 0)"
   id="text-logo-path-0">
<path
   style="stroke: none; stroke-width: 0; stroke-dasharray: none; stroke-linecap: butt; stroke-dashoffset: 0; stroke-linejoin: miter; stroke-miterlimit: 4; fill: rgb(255,255,255); fill-rule: nonzero; opacity: 1;"
   paint-order="stroke"
   transform=" translate(-167.2, 22.275)"
   d="M 11.78 -3.78 L 11.78 -30.27 C 11.78 -33.47 14.4 -36.1 17.6 -36.1 C 20.74 -36.1 23.36 -33.47 23.36 -30.27 L 23.36 -3.78 C 23.36 -1.28 25.34 0.7 27.84 0.7 C 30.34 0.7 32.32 -1.28 32.32 -3.78 L 32.32 -30.27 C 32.32 -33.47 34.94 -36.1 38.14 -36.1 C 41.28 -36.1 43.9 -33.47 43.9 -30.27 L 43.9 -3.78 C 43.9 -1.28 45.89 0.7 48.38 0.7 C 50.88 0.7 52.86 -1.28 52.86 -3.78 L 52.86 -30.27 C 52.86 -38.46 46.27 -45.06 38.14 -45.06 C 34.11 -45.06 30.46 -43.46 27.84 -40.9 C 25.22 -43.46 21.57 -45.06 17.6 -45.06 C 9.41 -45.06 2.82 -38.46 2.82 -30.27 L 2.82 -3.78 C 2.82 -1.28 4.8 0.7 7.3 0.7 C 9.79 0.7 11.78 -1.28 11.78 -3.78 Z M 80.26 -4.03 L 80.26 -40.77 C 80.26 -43.26 78.27 -45.25 75.78 -45.25 C 73.28 -45.25 71.3 -43.26 71.3 -40.77 L 71.3 -4.03 C 71.3 -1.54 73.28 0.45 75.78 0.45 C 78.27 0.45 80.26 -1.54 80.26 -4.03 Z M 99.71 -7.49 C 103.68 -2.56 109.38 0.26 115.52 0.26 C 124.8 0.26 132.22 -5.38 132.22 -13.5 C 132.22 -22.27 125.57 -24.51 116.74 -26.43 C 111.1 -27.78 108.74 -28.61 108.74 -31.62 C 108.74 -34.05 110.91 -36.1 115.26 -36.1 C 118.27 -36.1 120.45 -35.01 122.05 -33.47 C 122.88 -32.7 123.97 -32.26 125.18 -32.26 C 127.62 -32.26 129.66 -34.24 129.66 -36.74 C 129.66 -38.02 129.15 -39.1 128.26 -39.94 C 125.25 -42.82 121.02 -45.06 115.26 -45.06 C 105.98 -45.06 99.78 -39.17 99.78 -31.62 C 99.78 -22.53 106.69 -19.65 114.69 -17.73 C 120.9 -16.38 123.26 -15.94 123.26 -13.5 C 123.26 -10.69 119.87 -8.7 115.52 -8.7 C 112.13 -8.7 109.06 -10.18 106.69 -13.12 C 105.86 -14.14 104.58 -14.78 103.17 -14.78 C 100.74 -14.78 98.69 -12.8 98.69 -10.3 C 98.69 -9.28 99.07 -8.26 99.71 -7.49 Z M 151.68 -7.49 C 155.65 -2.56 161.34 0.26 167.49 0.26 C 176.77 0.26 184.19 -5.38 184.19 -13.5 C 184.19 -22.27 177.54 -24.51 168.7 -26.43 C 163.07 -27.78 160.7 -28.61 160.7 -31.62 C 160.7 -34.05 162.88 -36.1 167.23 -36.1 C 170.24 -36.1 172.42 -35.01 174.02 -33.47 C 174.85 -32.7 175.94 -32.26 177.15 -32.26 C 179.58 -32.26 181.63 -34.24 181.63 -36.74 C 181.63 -38.02 181.12 -39.1 180.22 -39.94 C 177.22 -42.82 172.99 -45.06 167.23 -45.06 C 157.95 -45.06 151.74 -39.17 151.74 -31.62 C 151.74 -22.53 158.66 -19.65 166.66 -17.73 C 172.86 -16.38 175.23 -15.94 175.23 -13.5 C 175.23 -10.69 171.84 -8.7 167.49 -8.7 C 164.1 -8.7 161.02 -10.18 158.66 -13.12 C 157.82 -14.14 156.54 -14.78 155.14 -14.78 C 152.7 -14.78 150.66 -12.8 150.66 -10.3 C 150.66 -9.28 151.04 -8.26 151.68 -7.49 Z M 211.58 -4.03 L 211.58 -40.77 C 211.58 -43.26 209.6 -45.25 207.1 -45.25 C 204.61 -45.25 202.62 -43.26 202.62 -40.77 L 202.62 -4.03 C 202.62 -1.54 204.61 0.45 207.1 0.45 C 209.6 0.45 211.58 -1.54 211.58 -4.03 Z M 252.67 -8.7 C 245.12 -8.7 238.98 -14.85 238.98 -22.4 C 238.98 -29.95 245.12 -36.1 252.67 -36.1 C 260.22 -36.1 266.37 -29.95 266.37 -22.4 C 266.37 -14.85 260.22 -8.7 252.67 -8.7 Z M 252.67 0.26 C 265.22 0.26 275.33 -9.86 275.33 -22.4 C 275.33 -34.94 265.22 -45.06 252.67 -45.06 C 240.13 -45.06 230.02 -34.94 230.02 -22.4 C 230.02 -9.86 240.13 0.26 252.67 0.26 Z M 302.72 -3.78 L 302.72 -26.11 C 302.72 -31.62 307.2 -36.1 312.7 -36.1 C 318.14 -36.1 322.62 -31.62 322.62 -26.11 L 322.62 -3.78 C 322.62 -1.28 324.61 0.7 327.1 0.7 C 329.6 0.7 331.58 -1.28 331.58 -3.78 L 331.58 -26.11 C 331.58 -36.61 323.14 -45.06 312.7 -45.06 C 302.21 -45.06 293.76 -36.61 293.76 -26.11 L 293.76 -3.78 C 293.76 -1.28 295.74 0.7 298.24 0.7 C 300.74 0.7 302.72 -1.28 302.72 -3.78 Z"
   stroke-linecap="round"
   id="path6" />
</g>
</g>
</g>
<rect
   style="fill:#000000"
   id="rect11"
   width="800"
   height="4"
   x="417.38882"
   y="551.52405" /><rect
   style="fill:#000000"
   id="rect12"
   width="800"
   height="1"
   x="424.04477"
   y="458.34067" /><rect
   style="fill:#000000"
   id="rect13"
   width="800"
   height="4"
   x="421.62442"
   y="481.63651" /><rect
   style="fill:#000000"
   id="rect14"
   width="800"
   height="4"
   x="416.78372"
   y="528.22821" /><rect
   style="fill:#000000"
   id="rect15"
   width="800"
   height="4"
   x="419.20407"
   y="504.93237" /></svg>
